<svg width="20" height="20" viewBox="0 0 20 20" fill="none" xmlns="http://www.w3.org/2000/svg">
<g clip-path="url(#clip0_2002_4970)">
<path d="M9.60168 1.89535C7.39374 2.10122 5.78347 3.77298 5.50192 4.07327C5.39819 4.18473 3.68255 6.06235 3.72042 7.84401C3.72536 8.04524 3.75994 8.635 3.60188 9.40741C3.53931 9.71081 3.45204 10.1226 3.21495 10.6086C2.95481 11.1457 2.80333 11.172 2.26493 12.0188C1.92904 12.5451 1.7611 12.8144 1.70018 13.1224C1.57999 13.74 1.79238 14.2509 1.86318 14.4072C2.19083 15.1177 2.82803 15.4567 3.39277 15.7477C3.64962 15.8793 4.11723 16.096 5.62047 16.404C6.45195 16.5743 7.10725 16.709 8.01117 16.7956C10.2471 17.0093 11.9792 16.7368 13.3656 16.5093C14.8606 16.2632 15.5159 16.0248 15.8221 15.9025C16.7705 15.5279 17.8588 15.0976 18.2128 14.1146C18.4499 13.4568 18.2589 12.8237 18.2425 12.7741C18.0926 12.3036 17.8572 12.1983 17.4406 11.4754C17.3237 11.2727 17.0767 10.8392 16.9203 10.3439C16.726 9.72629 16.8314 9.51112 16.787 8.33316C16.7507 7.37344 16.731 6.85179 16.535 6.21096C16.3144 5.49272 15.9851 4.99584 15.8073 4.73114C15.6048 4.4293 14.7157 3.16155 12.9704 2.38604C12.4073 2.13528 11.9068 2.05788 11.6483 2.00835C11.5989 1.99906 10.5599 1.80712 9.59839 1.8969L9.60168 1.89535Z" fill="#FFF7E2"/>
<path d="M8.98899 1.98226C8.28975 2.11302 6.99793 2.45111 5.50124 4.05372C5.40812 4.15259 3.68118 6.04064 3.71843 7.82982C3.72351 8.03074 3.75737 8.62235 3.59991 9.39575C3.53727 9.69873 3.44923 10.1117 3.21389 10.5981C2.95316 11.1355 2.80247 11.1626 2.26407 12.011C1.92884 12.5372 1.75953 12.8067 1.70027 13.116C1.58007 13.7348 1.7917 14.2466 1.86281 14.4029C2.18958 15.1141 2.82617 15.4538 3.39166 15.7456C3.64901 15.8779 4.1163 16.0948 5.61976 16.4026C6.45106 16.5732 7.10629 16.7072 8.01039 16.7949C10.247 17.0085 11.979 16.7359 13.3656 16.5078C14.8606 16.2623 15.5158 16.0215 15.8223 15.9003C16.7721 15.5239 17.859 15.0934 18.2129 14.1095C18.4499 13.4493 18.2586 12.8162 18.2434 12.7668C18.0944 12.2964 17.8574 12.1896 17.4409 11.4656C17.324 11.2631 17.0768 10.8277 16.9211 10.3334C16.7264 9.71468 16.8313 9.4994 16.7873 8.31937C16.7518 7.3594 16.7315 6.83636 16.5351 6.19372C16.315 5.47454 15.9848 4.97542 15.807 4.71071C15.6056 4.40932 14.715 3.1384 12.9711 2.36022C12.3752 2.09551 12.0772 1.96315 11.6488 1.98229C10.3113 2.04448 9.47321 3.48443 9.34623 3.7029C8.57757 5.02485 8.81968 6.44886 8.98899 7.45189C9.10582 8.13758 9.29036 8.68933 9.43427 9.06088" stroke="#3A643B" stroke-width="0.7" stroke-miterlimit="10" stroke-linecap="round"/>
<path d="M8.8865 6.12891C9.17024 6.21345 10.0273 6.50862 10.5657 7.37334C11.1899 8.37601 11.1288 9.73911 10.4158 10.8501C10.0258 10.7714 9.45834 10.5935 8.90687 10.1663C8.59112 9.92155 8.16769 9.59375 7.94361 8.97969C7.70498 8.32855 7.83739 7.75602 7.87813 7.58693C8.09057 6.71775 8.71189 6.25202 8.8865 6.12891Z" stroke="#3A643B" stroke-width="0.7" stroke-miterlimit="10"/>
<path d="M10.8359 17.9342C11.3308 18.2638 12.1154 18.406 12.8345 18.2974C13.5084 18.1951 14.0223 17.8882 14.1693 17.5" stroke="#3A643B" stroke-width="0.7" stroke-miterlimit="10" stroke-linecap="round"/>
</g>
<defs>
<clipPath id="clip0_2002_4970">
<rect width="20" height="20" fill="white"/>
</clipPath>
</defs>
</svg>
