<svg width="24" height="26" viewBox="0 0 24 26" fill="none" xmlns="http://www.w3.org/2000/svg">
<path d="M10.7471 3.38086C10.8352 3.39154 10.9076 3.44612 10.9473 3.52051L10.9756 3.60059V3.60352C10.9756 3.60278 11.0378 3.90986 11.2373 4.25586C11.5011 4.71086 11.8686 5.01416 12.3291 5.16113C12.6806 5.27289 12.9834 5.48047 13.2275 5.77344C13.4426 6.03181 13.6079 6.34937 13.7207 6.71777V6.71875C13.9149 7.35428 13.9401 8.11426 13.7891 8.75488C13.7654 8.85473 13.6885 8.93656 13.585 8.95898L13.5811 8.95996C13.5789 8.96039 13.5581 8.96427 13.5312 8.96875C13.5009 8.9738 13.4583 8.98095 13.4053 8.9873C13.299 9.00004 13.1499 9.01172 12.9727 9.01172C12.8417 9.01172 12.6948 9.00543 12.5381 8.9873C12.28 8.95706 12.0335 8.90046 11.8027 8.81738L11.5771 8.72559C11.2066 8.55598 10.8841 8.31332 10.6201 8.00391C10.3726 7.71426 10.1837 7.37861 10.0605 7.00684C9.93689 6.63753 9.88499 6.25212 9.9043 5.86035C9.92942 5.34143 10.0491 4.51969 10.4746 3.54004C10.5209 3.43374 10.629 3.36747 10.7461 3.38184L10.7471 3.38086ZM10.7139 4.4082C10.5153 5.02495 10.4494 5.53714 10.4326 5.88867C10.4012 6.53267 10.6141 7.17035 11.0137 7.6377C11.3997 8.08869 11.928 8.35973 12.5869 8.43945C12.8876 8.47613 13.1482 8.46001 13.3096 8.44238C13.3932 7.94051 13.3611 7.35816 13.2158 6.88281C13.079 6.43319 12.787 5.8797 12.1738 5.68457C11.8461 5.58024 11.5515 5.41059 11.2979 5.18066C11.0962 4.99768 10.9203 4.77687 10.7764 4.52441C10.7538 4.48525 10.7335 4.44622 10.7139 4.4082Z" fill="#3C653D" stroke="#3C653D" stroke-width="0.2"/>
<path d="M16.0352 2.10254C16.1531 2.08751 16.2613 2.15533 16.3076 2.26074C16.5878 2.90519 16.667 3.44679 16.6836 3.79004C16.6959 4.05474 16.6612 4.31496 16.5781 4.56445C16.4945 4.81557 16.3674 5.04231 16.2002 5.23926V5.24023C15.919 5.56859 15.5399 5.78478 15.0986 5.875L14.9053 5.90527C14.8001 5.91704 14.7027 5.92186 14.6152 5.92188C14.3915 5.92188 14.2322 5.89203 14.2002 5.88477V5.88574L14.1992 5.88477C14.1978 5.88444 14.1961 5.88498 14.1953 5.88477V5.88379C14.0967 5.86014 14.0197 5.78246 13.9961 5.68164C13.8953 5.25173 13.9129 4.74319 14.042 4.31738L14.1055 4.13672C14.176 3.96209 14.2665 3.80637 14.377 3.67383C14.5457 3.47132 14.7554 3.32764 15 3.25C15.3295 3.14473 15.531 2.9167 15.6514 2.70898C15.7114 2.60528 15.7503 2.50732 15.7744 2.43555C15.7864 2.39989 15.7946 2.37065 15.7998 2.35059C15.8023 2.34079 15.8045 2.33327 15.8057 2.32812C15.8063 2.32511 15.8064 2.32256 15.8066 2.32129C15.8279 2.20748 15.918 2.11585 16.0352 2.10156V2.10254ZM16.0361 3.09766C15.8173 3.42522 15.5163 3.66015 15.1553 3.77539C14.8021 3.88803 14.6298 4.21165 14.5469 4.4834C14.4656 4.75096 14.444 5.07494 14.4805 5.36426C14.5783 5.37086 14.7089 5.37526 14.8545 5.35742C15.2553 5.30839 15.5721 5.14437 15.8037 4.87402C16.0441 4.59244 16.1743 4.20814 16.1553 3.81836C16.1465 3.63913 16.1148 3.39308 16.0361 3.09766Z" fill="#3C653D" stroke="#3C653D" stroke-width="0.2"/>
<path d="M15.4195 18.6686H8.92197L7.13281 10.1016H19.1149C20.0995 10.1016 20.5917 10.1016 20.8486 10.4578C21.1054 10.8141 20.9986 11.3488 20.785 12.4183C20.0445 16.1263 19.434 18.6686 15.4195 18.6686Z" fill="#FFF7E2"/>
<path d="M8.92197 18.6686H15.4195C19.434 18.6686 20.0445 16.1263 20.785 12.4183C20.9986 11.3488 21.1054 10.8141 20.8486 10.4578C20.5917 10.1016 20.0995 10.1016 19.1149 10.1016H7.13281" stroke="#3C653D" stroke-width="0.7" stroke-linecap="round"/>
<path d="M8.92018 18.672L6.57525 7.41303C6.37613 6.61013 5.6605 6.04688 4.83952 6.04688H4" stroke="#3C653D" stroke-width="0.7" stroke-linecap="round"/>
<path d="M9.7092 18.6699H9.34114C8.12152 18.6699 7.13281 19.7082 7.13281 20.9888C7.13281 21.2023 7.29759 21.3753 7.50087 21.3753H17.4205" stroke="#3C653D" stroke-width="0.7" stroke-linecap="round" stroke-linejoin="round"/>
<path d="M11.1583 24.0804C11.8994 24.0804 12.5001 23.4748 12.5001 22.7277C12.5001 21.9806 11.8994 21.375 11.1583 21.375C10.4172 21.375 9.81641 21.9806 9.81641 22.7277C9.81641 23.4748 10.4172 24.0804 11.1583 24.0804Z" stroke="#3C653D" stroke-width="0.7"/>
<path d="M17.4161 24.0804C18.1572 24.0804 18.758 23.4748 18.758 22.7277C18.758 21.9806 18.1572 21.375 17.4161 21.375C16.675 21.375 16.0742 21.9806 16.0742 22.7277C16.0742 23.4748 16.675 24.0804 17.4161 24.0804Z" stroke="#3C653D" stroke-width="0.7"/>
</svg>
