<svg width="24" height="24" viewBox="0 0 24 24" fill="none" xmlns="http://www.w3.org/2000/svg">
<path d="M3 9.58008H14.1598C16.7902 9.58008 18.1054 9.58008 18.9226 10.3972C19.7398 11.2144 19.7398 12.5296 19.7398 15.16V16.09C19.7398 18.7204 19.7398 20.0355 18.9226 20.8527C18.1054 21.6699 16.7902 21.6699 14.1598 21.6699H8.57992C5.94952 21.6699 4.63432 21.6699 3.81716 20.8527C3 20.0355 3 18.7204 3 16.09V9.58008Z" fill="#FFF7E2"/>
<path d="M19.7398 16.09C19.7398 18.7204 19.7398 20.0355 18.9226 20.8527C18.1054 21.6699 16.7902 21.6699 14.1598 21.6699H8.57992C5.94952 21.6699 4.63432 21.6699 3.81716 20.8527C3 20.0355 3 18.7204 3 16.09V9.58008H14.1598C16.7902 9.58008 18.1054 9.58008 18.9226 10.3972C19.2966 10.7713 19.4995 11.2498 19.6095 11.9109" stroke="#3A643B" stroke-width="0.7" stroke-linecap="round" stroke-linejoin="round"/>
<path d="M14.1598 9.57837V5.49756C14.1598 4.67048 13.4893 4 12.6623 4C12.4241 4 12.1894 4.0568 11.9775 4.1657L3.70893 8.41676C3.27364 8.64055 3 9.08891 3 9.57837" stroke="#3A643B" stroke-width="0.7" stroke-linecap="round" stroke-linejoin="round"/>
<path d="M19.1299 15.3793C19.1167 17.1603 19.798 17.5022 19.798 17.5022C19.798 17.5022 20.7031 16.5478 20.7046 15.2033C20.706 13.8588 20.0505 12.8202 20.0505 12.8202C20.0592 12.6435 19.1431 13.5983 19.1299 15.3793Z" fill="#B0C1B1" stroke="#3A643B" stroke-width="0.7"/>
<path d="M17.2269 19.2687C18.5099 20.5048 19.2921 20.1907 19.2921 20.1907C19.2921 20.1907 19.3084 18.8042 18.3331 17.8779C17.3579 16.9516 16.09 16.7656 16.09 16.7656C15.9686 16.637 15.9439 18.0326 17.2269 19.2687Z" stroke="#3A643B" stroke-width="0.7"/>
<path d="M20.8735 18.4988C19.3346 19.3962 19.4181 20.2224 19.4181 20.2224C19.4181 20.2224 20.7405 20.6001 21.8976 19.9145C23.0546 19.2288 23.5844 18.0714 23.5844 18.0714C23.7412 17.9894 22.4124 17.6013 20.8735 18.4988Z" fill="#B0C1B1" stroke="#3A643B" stroke-width="0.7"/>
</svg>
