<svg width="24" height="24" viewBox="0 0 24 24" fill="none" xmlns="http://www.w3.org/2000/svg">
<circle cx="12" cy="7.5" r="3.15" stroke="#3A643B" stroke-width="0.7"/>
<path d="M20.4772 12.3431C20.4194 12.3299 20.362 12.3174 20.3051 12.3056C18.801 11.9925 17.5987 12.1281 16.6373 12.5411C15.6745 12.9548 14.9316 13.6557 14.3638 14.5056C13.2474 16.1768 12.8268 18.4004 12.7522 20.0195C12.7705 20.0456 12.7954 20.0805 12.8315 20.1224C12.9071 20.21 13.014 20.3165 13.152 20.4349C13.4277 20.6714 13.8175 20.9449 14.3119 21.2027C15.2991 21.7175 16.694 22.1644 18.4173 22.1341C19.9975 22.1063 21.1607 20.7878 22.0018 18.8624C22.7844 17.0707 23.2389 14.8575 23.4877 13.0194C23.0097 12.9135 22.0957 12.7125 20.4772 12.3431Z" fill="#FFF7E2" fill-opacity="0.886275" stroke="#3A643B" stroke-width="0.7" stroke-linecap="round"/>
<path d="M3.52278 12.3431C3.58057 12.3299 3.63796 12.3174 3.69491 12.3056C5.199 11.9925 6.40135 12.1281 7.36267 12.5411C8.32553 12.9548 9.06841 13.6557 9.63621 14.5056C10.7526 16.1768 11.1732 18.4004 11.2478 20.0195C11.2295 20.0456 11.2046 20.0805 11.1685 20.1224C11.0929 20.21 10.986 20.3165 10.848 20.4349C10.5723 20.6714 10.1825 20.9449 9.68814 21.2027C8.70095 21.7175 7.30602 22.1644 5.58271 22.1341C4.00247 22.1063 2.83931 20.7878 1.99821 18.8624C1.21563 17.0707 0.76114 14.8575 0.512349 13.0194C0.990349 12.9135 1.90427 12.7125 3.52278 12.3431Z" fill="#FFF7E2" fill-opacity="0.886275" stroke="#3A643B" stroke-width="0.7" stroke-linecap="round"/>
</svg>
